<svg width="128" height="89" viewBox="0 0 128 89" fill="none" xmlns="http://www.w3.org/2000/svg">
<path d="M30.2635 0.0939178C31.9518 -0.172946 37.303 0.16452 39.2147 0.658371C43.9745 1.8881 47.1644 3.68307 50.6531 7.09294L53.2615 9.64275L54.4109 8.57732C56.0136 7.09157 57.5937 6.05463 60.0027 4.90935C63.3032 3.34014 65.5014 2.8654 69.4598 2.8654C73.4307 2.8654 75.6156 3.34029 78.9588 4.92986C81.6383 6.20364 83.7039 7.67452 85.6346 9.68376C86.7965 10.8926 88.6239 13.3153 89.1356 14.3244C89.1564 14.3594 89.9137 14.111 90.8201 13.7717C91.7285 13.4316 93.6344 12.9139 95.0545 12.6222C97.2575 12.1695 98.188 12.111 101.393 12.2228C107.609 12.4398 112.212 14.0283 116.979 17.6008C130.203 27.5109 131.779 46.8598 120.333 58.7873C114.155 65.2245 106.029 68.0951 96.7596 67.1164L94.8817 66.9181L94.1395 68.0978C92.2378 71.122 88.5909 74.0997 84.9354 75.6134C82.9065 76.4534 79.4573 77.1544 77.3494 77.1545C74.8551 77.1545 71.6728 76.4538 68.9109 75.297C68.5791 75.1578 68.3423 75.4065 67.8123 76.4484C64.7966 82.3783 59.4979 86.6318 52.9129 88.4084C49.9739 89.2012 44.5023 89.1973 41.534 88.4006C38.9848 87.7161 35.4619 86.0249 33.4803 84.5343C31.7313 83.2188 30.0311 81.4474 28.6336 79.5431C30.3713 78.2004 32.2388 76.7476 34.2244 75.1886C52.5653 60.7892 53.1149 60.4122 54.7401 61.1281C58.1207 62.617 64.9762 63.2948 68.0848 62.4474C71.9021 61.4072 77.0622 57.9007 79.2361 54.8693C81.3266 51.9558 83.3695 46.7005 83.2068 44.6584C82.9627 41.6138 81.5892 41.9167 75.1502 46.4367L68.9861 50.7629L64.4705 48.4562C61.9866 47.1878 59.7493 45.8445 59.4979 45.4709C59.2472 45.0975 58.7202 42.447 58.326 39.5812L57.6092 34.3703L63.4725 30.0959C70.4094 25.0399 70.8819 23.886 66.408 22.923C64.7592 22.5678 62.1687 22.5469 60.3406 22.8732C51.3551 24.4778 45.1335 30.6884 43.6795 39.5051C43.3824 41.3068 43.2408 43.6785 43.3651 44.7746L43.5916 46.7687L24.2967 59.9416C18.3777 63.9831 12.8585 67.8446 8.99591 70.6232C6.2129 68.6561 3.94764 66.0258 2.33282 62.8312C0.616793 59.4368 0.0448894 57.1137 0.00177002 53.3664C-0.0618464 47.8161 1.58473 43.2321 5.18732 38.9347C6.07945 37.8709 8.9345 35.4437 10.1883 34.6838C10.5624 34.4569 10.5447 34.2869 9.98712 32.7756C8.44512 28.5973 8.18219 22.7954 9.33478 18.3683C11.5877 9.71567 18.7687 2.70494 27.4393 0.693527C28.5791 0.429241 29.8502 0.15918 30.2635 0.0939178Z" fill="black"/>
</svg>
